<?xml version="1.0"?>
<svg xmlns="http://www.w3.org/2000/svg" xmlns:xlink="http://www.w3.org/1999/xlink" version="1.1" width="100%" height="100%" viewBox="0 25 480 340">
<title>Hodgkin-Huxley Model</title>
<desc>
	Schematic of the basic Hodgkin-Huxley model of a neuron.
</desc>
<defs>
	<marker id="EndArrow" viewBox="0 0 10 10" refX="10" refY="5" markerUnits="strokeWidth" orient="auto" markerWidth="5" markerHeight="5">
		<polyline points="10,5 0,10 4,5 0,0 10,5" fill="black"/>
	</marker>
	<g id="term" style="stroke:black;stroke-width:2.5;fill:none">
		<path d="M0,0 V25"/>
		<circle cx="0" cy="30" r="5"/>
	</g>
</defs>
<g style="stroke:black;stroke-width:3;fill:none">
	<path d="M25,195 h50 M25,205 h50"/>
	<path d="M50,195 V100 H450 V175 M450,225 V300 H50 V205"/>
	<circle cx="450" cy="200" r="25"/>
	<path d="M450,185 V215" marker-end="url(#EndArrow)"/>
	<use xlink:href="#term" transform="translate(250,300)"/>
	<use xlink:href="#term" transform="translate(250,100) scale(1,-1)"/>
	<g stroke-width="2">
		<g id="set1">
			<rect x="175" y="135" width="20" height="70" stroke-width="3"/>
			<path d="M185,100 V135 M185,205 v40 M185,255 V300"/>
			<path d="M185,135 l5,7 -10,7 10,7 -10,7 10,7 -10,7 10,7 -10,7 10,7 -10,7"/>
			<path d="M165,245 h40 M175,255 h20"/>
		</g>
		<rect x="175" y="205" width="20" height="10" fill="black" stroke-width="3"/>
		<use xlink:href="#set1" transform="translate(140)"/>
	</g>
</g>
<switch style="stroke:none;fill:black;font-size:25"><text style="stroke:none;fill:black;font-size:25" font-family="DejaVu Serif" id="trsvg16-yue" systemLanguage="yue"><tspan x="100" y="50" id="trsvg1-yue">&#x7D30;&#x80DE;&#x5916;&#x57F9;&#x990A;&#x57FA;</tspan><tspan x="115" y="360" id="trsvg2-yue">&#x7D30;&#x80DE;&#x5167;&#x57F9;&#x990A;&#x57FA;</tspan><tspan x="5" y="180" id="trsvg3-yue">C</tspan><tspan dy="5" font-size="15" id="trsvg4-yue">m</tspan><tspan x="90" y="170" id="trsvg5-yue">g</tspan><tspan dy="5" font-size="15" id="trsvg6-yue">n</tspan><tspan dy="-5" id="trsvg7-yue">(t,V)</tspan><tspan x="135" y="270" id="trsvg8-yue">E</tspan><tspan dy="5" font-size="15" id="trsvg9-yue">n</tspan><tspan x="280" y="170" id="trsvg10-yue">g</tspan><tspan dy="5" font-size="15" id="trsvg11-yue">L</tspan><tspan x="280" y="270" id="trsvg12-yue">E</tspan><tspan dy="5" font-size="15" id="trsvg13-yue">L</tspan><tspan x="400" y="220" id="trsvg14-yue">I</tspan><tspan dy="5" font-size="15" id="trsvg15-yue">p</tspan>
</text><text style="stroke:none;fill:black;font-size:25" font-family="DejaVu Serif" id="trsvg16"><tspan x="100" y="50" id="trsvg1">Extracellular Medium</tspan><tspan x="115" y="360" id="trsvg2">Intracellular Medium</tspan><tspan x="5" y="180" id="trsvg3">C</tspan><tspan dy="5" font-size="15" id="trsvg4">m</tspan><tspan x="90" y="170" id="trsvg5">g</tspan><tspan dy="5" font-size="15" id="trsvg6">n</tspan><tspan dy="-5" id="trsvg7">(t,V)</tspan><tspan x="135" y="270" id="trsvg8">E</tspan><tspan dy="5" font-size="15" id="trsvg9">n</tspan><tspan x="280" y="170" id="trsvg10">g</tspan><tspan dy="5" font-size="15" id="trsvg11">L</tspan><tspan x="280" y="270" id="trsvg12">E</tspan><tspan dy="5" font-size="15" id="trsvg13">L</tspan><tspan x="400" y="220" id="trsvg14">I</tspan><tspan dy="5" font-size="15" id="trsvg15">p</tspan>
</text></switch>
</svg>
